<mxfile host="65bd71144e">
    <diagram id="9Pyp-UdcA0subnxoWaY0" name="Page-1">
        <mxGraphModel dx="1918" dy="565" grid="1" gridSize="10" guides="1" tooltips="1" connect="1" arrows="1" fold="1" page="1" pageScale="1" pageWidth="850" pageHeight="1100" math="1" shadow="0">
            <root>
                <mxCell id="0"/>
                <mxCell id="1" parent="0"/>
                <mxCell id="3" style="edgeStyle=none;html=1;exitX=1;exitY=0.5;exitDx=0;exitDy=0;entryX=0;entryY=0.5;entryDx=0;entryDy=0;fontSize=30;endArrow=open;endFill=0;endSize=20;" edge="1" parent="1" source="4" target="7">
                    <mxGeometry relative="1" as="geometry"/>
                </mxCell>
                <mxCell id="4" value="Parser" style="rounded=1;whiteSpace=wrap;html=1;fontSize=30;fillColor=#D80073;fontColor=#ffffff;strokeColor=#3700CC;gradientColor=#80FF00;gradientDirection=east;" vertex="1" parent="1">
                    <mxGeometry x="299.38" y="20" width="310" height="100" as="geometry"/>
                </mxCell>
                <mxCell id="5" style="edgeStyle=none;html=1;exitX=1;exitY=0.5;exitDx=0;exitDy=0;entryX=0;entryY=0.5;entryDx=0;entryDy=0;fontSize=30;endArrow=open;endFill=0;endSize=20;" edge="1" parent="1" source="6" target="4">
                    <mxGeometry relative="1" as="geometry"/>
                </mxCell>
                <mxCell id="6" value="Tokens" style="text;html=1;strokeColor=none;fillColor=none;align=center;verticalAlign=middle;whiteSpace=wrap;rounded=0;fontSize=30;fontColor=#D80073;" vertex="1" parent="1">
                    <mxGeometry x="69.38" y="55" width="150" height="30" as="geometry"/>
                </mxCell>
                <mxCell id="7" value="AST" style="text;html=1;strokeColor=none;fillColor=none;align=center;verticalAlign=middle;whiteSpace=wrap;rounded=0;fontSize=30;fontColor=#80FF00;" vertex="1" parent="1">
                    <mxGeometry x="689.38" y="55" width="110" height="30" as="geometry"/>
                </mxCell>
                <mxCell id="8" style="edgeStyle=none;html=1;exitX=0.5;exitY=0;exitDx=0;exitDy=0;entryX=0.5;entryY=1;entryDx=0;entryDy=0;fontSize=30;endArrow=open;endFill=0;endSize=20;" edge="1" parent="1" source="9" target="4">
                    <mxGeometry relative="1" as="geometry"/>
                </mxCell>
                <mxCell id="9" value="Grammar" style="text;html=1;strokeColor=none;fillColor=none;align=center;verticalAlign=middle;whiteSpace=wrap;rounded=0;fontSize=30;" vertex="1" parent="1">
                    <mxGeometry x="364.38" y="160" width="180" height="80" as="geometry"/>
                </mxCell>
                <mxCell id="10" value="(usually a Context Free Grammar)$$\text{e.g } rule \to (rule | token)*$$" style="text;html=1;strokeColor=none;fillColor=none;align=center;verticalAlign=middle;whiteSpace=wrap;rounded=0;fontSize=20;" vertex="1" parent="1">
                    <mxGeometry x="320" y="250" width="268.75" height="50" as="geometry"/>
                </mxCell>
                <mxCell id="11" value="(Generated by lexer)" style="text;html=1;strokeColor=none;fillColor=none;align=center;verticalAlign=middle;whiteSpace=wrap;rounded=0;fontSize=20;" vertex="1" parent="1">
                    <mxGeometry x="10" y="80" width="268.75" height="40" as="geometry"/>
                </mxCell>
                <mxCell id="12" value="(Used for semantic analysis, code generation)" style="text;html=1;strokeColor=none;fillColor=none;align=center;verticalAlign=middle;whiteSpace=wrap;rounded=0;fontSize=20;" vertex="1" parent="1">
                    <mxGeometry x="609.38" y="85" width="249.37" height="40" as="geometry"/>
                </mxCell>
            </root>
        </mxGraphModel>
    </diagram>
</mxfile>